<svg id="Layer_1" data-name="Layer 1" xmlns="http://www.w3.org/2000/svg" viewBox="0 0 1327.9 286.89999"><defs><style>.cls-1{fill:#e5e5e5;}.cls-2{fill:#fff;}.cls-3{opacity:0.4;}</style></defs><title>logo</title><path class="cls-1" d="M135.5,249.2q15.3,11.2,40.4,11.1,34.8,0,55.7-25.1,25.1-32,25.1-91.9T231.6,51.4q-20.9-23.6-57.1-23.7-25.1,0-39,9.7T123,66.6H91q0-22.2,19.5-45.9Q131.4.1,175.9.1q51.5,0,83.5,36.2t33.4,107.2q0,71-33.4,107.2t-83.5,36.2q-45.9,0-68.2-25.1Q91,242.3,91,220h32Q123,238.1,135.5,249.2Z"/><path class="cls-2" d="M169.8,220h32q0,22.3-16.7,41.8-22.3,25.1-68.2,25.1-51.5,0-83.5-36.2T0,143.4Q0,71.1,33.4,36.2T116.9,0q44.5,0,65.4,20.9,19.5,23.7,19.5,45.9h-32q0-19.5-12.5-29.2t-39-9.7q-36.2,0-57.1,23.7Q36.1,85,36.1,143.5t25.1,91.8q20.9,25,55.7,25,25.1,0,40.4-11.1Q169.8,238.1,169.8,220Z"/><g class="cls-3"><path class="cls-1" d="M104,74.1l3.5.7c.5-2.4,1-4.9,1.7-7.2l-3.4-.9A66.37339,66.37339,0,0,0,104,74.1Z"/><path class="cls-1" d="M101.9,85.1l3.5.6c.4-2.4.8-4.9,1.3-7.3l-3.5-.7C102.7,80.2,102.4,82.6,101.9,85.1Z"/><path class="cls-1" d="M100.2,96.2l3.5.5c.3-2.5.7-4.9,1.1-7.4l-3.5-.6C101,91.2,100.5,93.7,100.2,96.2Z"/><polygon class="cls-1" points="98.9 107.3 102.4 107.7 102.8 104 103.3 100.3 99.8 99.8 99.3 103.6 98.9 107.3"/><path class="cls-1" d="M97.9,118.4l3.5.3.3-3.7c.1-1.2.2-2.5.4-3.7l-3.5-.3c-.1,1.2-.3,2.5-.4,3.7Z"/><path class="cls-1" d="M97.2,129.6l3.6.2v-3.7c.1-1.2.2-2.5.3-3.7l-3.5-.2c-.1,1.3-.2,2.5-.3,3.8Z"/><path class="cls-1" d="M96.9,140.8h3.5v-7.4H96.8v3.8C96.9,138.3,96.9,139.6,96.9,140.8Z"/><path class="cls-1" d="M96.9,152h3.5c-.1-2.5,0-5,0-7.4H96.8C96.9,147,96.8,149.5,96.9,152Z"/><polygon class="cls-1" points="97.2 163.2 100.8 163 100.6 155.6 97 155.7 97.2 163.2"/><polygon class="cls-1" points="98 174.4 101.6 174.1 101 166.7 97.5 166.9 98 174.4"/><polygon class="cls-1" points="99.1 185.5 102.7 185.1 101.8 177.7 98.3 178.1 99.1 185.5"/><path class="cls-1" d="M100.6,196.6l3.5-.5-.6-3.7c-.2-1.2-.3-2.5-.5-3.7l-3.5.5c.2,1.2.3,2.5.5,3.7Z"/><path class="cls-1" d="M102.5,207.7l3.5-.7c-.5-2.4-.8-4.9-1.2-7.3l-3.5.6C101.7,202.7,102,205.2,102.5,207.7Z"/><polygon class="cls-1" points="104.9 218.6 108.3 217.8 106.7 210.6 103.3 211.3 104.9 218.6"/></g><path class="cls-2" d="M184.4,76.5l3.5-.7c-.5-2.5-1.1-4.9-1.7-7.4l-3.4.9C183.4,71.6,183.9,74.1,184.4,76.5Z"/><path class="cls-2" d="M186.4,87.4l3.5-.6c-.4-2.5-.8-4.9-1.3-7.4l-3.5.7C185.6,82.5,186,84.9,186.4,87.4Z"/><path class="cls-2" d="M188.1,98.3l3.5-.5c-.3-2.5-.7-5-1.1-7.4L187,91C187.4,93.4,187.8,95.9,188.1,98.3Z"/><polygon class="cls-2" points="189.4 109.3 193 109 192.6 105.2 192.1 101.5 188.6 101.9 189 105.6 189.4 109.3"/><path class="cls-2" d="M190.4,120.4l3.5-.3-.3-3.7c-.1-1.2-.2-2.5-.4-3.7l-3.5.3c.1,1.2.3,2.5.4,3.7Z"/><path class="cls-2" d="M191.1,131.4l3.6-.2v-3.8c-.1-1.3-.2-2.5-.3-3.7l-3.5.2c.1,1.2.2,2.5.3,3.7Z"/><path class="cls-2" d="M191.4,142.5H195v-7.6h-3.6v7.6Z"/><path class="cls-2" d="M191.4,153.6H195c.1-2.5,0-5,0-7.5h-3.6C191.4,148.6,191.5,151.1,191.4,153.6Z"/><polygon class="cls-2" points="191.1 164.7 194.6 164.9 194.8 157.3 191.3 157.2 191.1 164.7"/><polygon class="cls-2" points="190.3 175.7 193.8 176 194.4 168.5 190.8 168.3 190.3 175.7"/><polygon class="cls-2" points="189.2 186.8 192.7 187.2 193.6 179.7 190 179.4 189.2 186.8"/><path class="cls-2" d="M187.7,197.7l3.5.5.6-3.7c.2-1.2.3-2.5.5-3.7l-3.5-.5c-.2,1.2-.3,2.5-.5,3.7Z"/><path class="cls-2" d="M185.9,208.7l3.5.7c.5-2.5.8-4.9,1.2-7.4l-3.5-.6C186.7,203.8,186.3,206.2,185.9,208.7Z"/><polygon class="cls-2" points="183.5 219.5 187 220.3 188.6 212.9 185.1 212.2 183.5 219.5"/><path class="cls-2" d="M342.3,139.7c0-33.2,24.7-51.7,49.3-51.7,22.7,0,38.7,12.3,43.7,31.5L422.6,124c-3.8-15-14.7-23.4-31-23.4-18.1,0-35.3,13.2-35.3,39.1s17.2,39.2,35.3,39.2,27.6-10.2,31.7-23.8l12.2,4.5c-5.3,18.6-21,31.9-43.8,31.9C366,191.6,342.3,172.9,342.3,139.7Z"/><path class="cls-2" d="M510,155.7c0,20.6-14.3,35.9-34.5,35.9S441,176.3,441,155.7,455.3,120,475.5,120,510,135.3,510,155.7Zm-13.4,0c0-15.5-9.8-24-21-24s-21,8.4-21,24,9.8,24.1,21,24.1,20.9-8.4,20.9-24.1Z"/><path class="cls-2" d="M552.7,189.5H539.4l-27.3-67.4h14.8l19.2,52,19.3-52h14.1Z"/><path class="cls-2" d="M604.9,150.9l18.2-2.7c4.1-.6,5.2-2.7,5.2-5,0-6.6-4.3-12-14.6-12s-14.4,5.7-15.3,13.6l-12.6-2.9c1.4-12.9,13-21.9,27.6-21.9,20.2,0,28,11.5,28,24.7v33.8a63.40291,63.40291,0,0,0,.8,11.1H629.4a49.302,49.302,0,0,1-.7-9.1c-2.9,4.8-9.7,11.2-21.7,11.2-13.7,0-22.6-9.5-22.6-20.2S593.3,152.6,604.9,150.9Zm23.4,9.7v-3.1l-20.6,3.1c-5.6.8-9.8,4.1-9.8,10.1s4.2,9.8,10.9,9.8C619.6,180.5,628.3,175.3,628.3,160.6Z"/><path class="cls-2" d="M659.1,189.5V88.1h13.2V189.5Z"/><path class="cls-2" d="M750.6,170.3c-3.8,11.9-14.6,21.3-30.3,21.3-18.1,0-33.9-13.2-33.9-36,0-21.2,15.3-35.6,32.2-35.6,20.7,0,32.4,14.3,32.4,35.3a29.60066,29.60066,0,0,1-.3,4.2H700c.3,12,9,20.5,20.3,20.5s16.4-6,18.9-13.6Zm-13.3-21.4c-.3-9.7-6.6-17.2-18.5-17.2s-17.8,8.5-18.4,17.2Z"/><path class="cls-2" d="M778.2,189.5H765V122.1h12.9v9.7c4.9-8.4,12.9-11.6,20.7-11.6,16.1,0,24.1,11.6,24.1,26.6v42.7H809.6V149c0-9.4-3.9-16.9-15.7-16.9s-15.7,8.3-15.7,18.5Z"/><path class="cls-2" d="M858.6,122.1h14.6V134H858.6v35c0,6.2,2.5,9.2,9.4,9.2a26.59963,26.59963,0,0,0,5.2-.6v11.2a28.79965,28.79965,0,0,1-9,1.3c-11.5,0-18.8-7-18.8-19.2v-37H832.5V122.1h3.6c7.3,0,10.4-4.5,10.4-10.4V100.8h12Z"/><path class="cls-2" d="M915.20005,139.7c0-33.2,24.7-51.7,49.3-51.7,22.7,0,38.7,12.3,43.7,31.5l-12.7,4.5c-3.8-15-14.7-23.4-31-23.4-18.1,0-35.3,13.2-35.3,39.1s17.2,39.2,35.3,39.2,27.6-10.2,31.7-23.8l12.2,4.5c-5.3,18.6-21,31.9-43.8,31.9C938.9,191.6,915.20005,172.9,915.20005,139.7Z"/><path class="cls-2" d="M1035.8,150.9l18.2-2.7c4.1-.6,5.2-2.7,5.2-5,0-6.6-4.3-12-14.6-12s-14.4,5.7-15.3,13.6l-12.6-2.9c1.4-12.9,13-21.9,27.6-21.9,20.2,0,28,11.5,28,24.7v33.8a63.30234,63.30234,0,0,0,.8,11.1h-12.9a49.30207,49.30207,0,0,1-.7-9.1c-2.9,4.8-9.7,11.2-21.7,11.2-13.7,0-22.6-9.5-22.6-20.2S1024.20005,152.6,1035.8,150.9Zm23.4,9.7v-3.1l-20.6,3.1c-5.6.8-9.8,4.1-9.8,10.1s4.2,9.8,10.9,9.8C1050.5,180.5,1059.20005,175.3,1059.20005,160.6Z"/><path class="cls-2" d="M1087.20005,216.1v-94h12.7v10.5c3.6-6.7,11.6-12,22.6-12,20.2,0,31,15.5,31,35.2s-11.6,35.6-31.4,35.6c-10.4,0-18.2-4.9-21.9-10.9v35.7Zm32.9-83.9c-12,0-20,10.1-20,23.5s8,23.8,20,23.8,19.9-9.9,19.9-23.8S1132.5,132.2,1120.1,132.2Z"/><path class="cls-2" d="M1171.1,87.1a9.5,9.5,0,1,1-9.39954,9.59946q-.00055-.04974-.00049-.09946a9.4,9.4,0,0,1,9.29944-9.49947Zm-6.4,102.4V122.1h13v67.4Z"/><path class="cls-2" d="M1215,122.1h14.6V134H1215v35c0,6.2,2.5,9.2,9.4,9.2a26.60019,26.60019,0,0,0,5.2-.6v11.2a28.79966,28.79966,0,0,1-9,1.3c-11.5,0-18.8-7-18.8-19.2v-37h-12.9V122.1h3.6c7.3,0,10.4-4.5,10.4-10.4V100.8h12Z"/><path class="cls-2" d="M1260.5,150.9l18.2-2.7c4.1-.6,5.2-2.7,5.2-5,0-6.6-4.3-12-14.6-12s-14.4,5.7-15.3,13.6l-12.6-2.9c1.4-12.9,13-21.9,27.6-21.9,20.2,0,28,11.5,28,24.7v33.8a63.30244,63.30244,0,0,0,.8,11.1h-12.9a49.30207,49.30207,0,0,1-.7-9.1c-2.9,4.8-9.7,11.2-21.7,11.2-13.7,0-22.6-9.5-22.6-20.2S1248.8,152.6,1260.5,150.9Zm23.4,9.7v-3.1l-20.6,3.1c-5.6.8-9.8,4.1-9.8,10.1s4.2,9.8,10.9,9.8C1275.20005,180.5,1283.9,175.3,1283.9,160.6Z"/><path class="cls-2" d="M1314.70005,189.5V88.1h13.2V189.5Z"/></svg>